<?xml version="1.0" encoding="utf-8"?>
<!-- Generator: Adobe Illustrator 16.0.0, SVG Export Plug-In . SVG Version: 6.00 Build 0)  -->
<!DOCTYPE svg PUBLIC "-//W3C//DTD SVG 1.1//EN" "http://www.w3.org/Graphics/SVG/1.1/DTD/svg11.dtd">
<svg version="1.1" id="圖層_1" xmlns="http://www.w3.org/2000/svg" xmlns:xlink="http://www.w3.org/1999/xlink" x="0px" y="0px"
	 width="85.04px" height="85.04px" viewBox="0 0 85.04 85.04" enable-background="new 0 0 85.04 85.04" xml:space="preserve">
<g>
	<path fill="#320C03" d="M46.515,3.586c0,0-38.271,12.08-46.115,49.429c0,0-0.946,11.069,0.979,11.582
		c2.149,1.47,63.472,19.591,73.292,20.124s9.879-3.84,9.879-3.84s1.976-4.063-2.011-17.218C79.072,52.226,46.515,3.586,46.515,3.586
		z"/>
	<path fill="#34241E" d="M46.946,1.858c0,0-38.401,11.662-46.65,48.924c0,0-1.067,11.059,0.854,11.592
		c2.133,1.494,63.28,20.145,73.094,20.784s10.425-3.271,10.425-3.271s1.709-7.156-2.665-17.771
		C77.449,51.065,46.946,1.858,46.946,1.858z"/>
	<path fill="#845324" d="M80.929,59.324c-3.046-7.02-21.971-31.357-28.18-46.034c-14.761,7.73-28.208,17.927-37.378,31.29
		c-2.404,5.771-4.682,11.959-6.755,18.061c14.809,5.353,57.277,16.864,64.695,17.792c11.139,1.393,11.339-3.965,11.339-3.965
		S86.325,71.762,80.929,59.324z"/>
	<path fill="#BA9D52" d="M80.085,57.326c-9.5-18.297-19.704-35.244-23.53-44.036c-16,2.8-29.808,15.028-38.979,28.391
		c-4.267,6.934-7.894,12.8-8.96,18.561C24.51,64.935,66.473,76.45,73.908,77.223c10.931,1.136,10.434-2.954,10.434-2.954
		S85.418,69.534,80.085,57.326z"/>
	<polygon fill="#42210D" points="9.767,64.721 0.792,61.293 1.778,51.506 9.336,52.721 	"/>
	<path fill="#42210D" d="M52.564,0.293c0,0-41.936,6.258-52.055,49.814c0,0-1.636,4.52,2.631,5.23l5.476,1.135
		c1.564,0.354,1.849-0.356,2.702-3.556c1.138-4.415,13.938-32.078,42.525-38.904c0,0,3.334-0.496,2.613-3.746
		C56.457,10.267,55.181-0.243,52.564,0.293z"/>
	<path fill="#521D10" d="M56.514,10.59c-22.277,7.075-41.325,23.197-47.04,45.966l0.143,3.981
		c-0.574-4.883,11.48-36.244,43.393-46.09c0,0,2.8-1.042,3.545-1.157L56.514,10.59z"/>
	<path fill="#5C7933" stroke="#6E9131" stroke-miterlimit="10" d="M51.651,33.383c1.48,4.1,6.005,6.225,10.105,4.744
		c0.059-0.021,0.113-0.049,0.172-0.073l-5.806-14.662C52.206,24.974,50.205,29.377,51.651,33.383z"/>
	<path fill="#5C7933" stroke="#6E9131" stroke-miterlimit="10" d="M35.443,52.628c-3.831-2.081-8.624-0.664-10.704,3.167
		c-0.031,0.055-0.052,0.112-0.08,0.168l14.08,7.103C40.616,59.281,39.186,54.661,35.443,52.628z"/>
	<path fill="#5C7933" stroke="#6E9131" stroke-miterlimit="10" d="M68.104,66.116c2.885-0.932,4.468-4.025,3.536-6.908
		c-0.013-0.042-0.031-0.08-0.046-0.122l-10.325,3.687C62.273,65.531,65.286,67.026,68.104,66.116z"/>
	<path fill="#5C7933" stroke="#6E9131" stroke-miterlimit="10" d="M53.294,48.911c-1.661,2.535-0.954,5.938,1.581,7.598
		c0.036,0.025,0.074,0.043,0.111,0.067l5.728-9.35C58.201,45.709,54.917,46.436,53.294,48.911z"/>
	<path fill="#5C7933" stroke="#6E9131" stroke-miterlimit="10" d="M35.304,36.616c-3.49,1.208-5.34,5.018-4.132,8.507
		c0.027,0.08,0.063,0.154,0.094,0.233l12.487-4.755C42.488,37.208,38.744,35.424,35.304,36.616z"/>
</g>
</svg>
