<?xml version="1.0" encoding="utf-8"?>
<!-- Generator: Adobe Illustrator 16.0.0, SVG Export Plug-In . SVG Version: 6.00 Build 0)  -->
<!DOCTYPE svg PUBLIC "-//W3C//DTD SVG 1.1//EN" "http://www.w3.org/Graphics/SVG/1.1/DTD/svg11.dtd">
<svg version="1.1" id="圖層_1" xmlns="http://www.w3.org/2000/svg" xmlns:xlink="http://www.w3.org/1999/xlink" x="0px" y="0px"
	 width="85.04px" height="85.04px" viewBox="0 0 85.04 85.04" enable-background="new 0 0 85.04 85.04" xml:space="preserve">
<g>
	<path fill="#320C03" d="M46.515,3.586c0,0-38.271,12.079-46.115,49.43c0,0-0.946,11.068,0.979,11.58
		c2.15,1.471,63.472,19.592,73.292,20.125s9.879-3.84,9.879-3.84s1.977-4.063-2.012-17.217C79.073,52.226,46.515,3.586,46.515,3.586
		z"/>
	<path fill="#A24C23" d="M46.946,1.858c0,0-38.401,11.662-46.65,48.924c0,0-1.066,11.059,0.854,11.592
		c2.133,1.494,63.279,20.145,73.094,20.783c9.813,0.641,10.424-3.27,10.424-3.27s1.709-7.156-2.664-17.77
		C77.45,51.065,46.946,1.858,46.946,1.858z"/>
	<path fill="#DF9F53" d="M80.929,59.323c-3.047-7.018-21.971-31.356-28.18-46.034C37.988,21.02,24.542,31.217,15.371,44.58
		c-2.404,5.771-4.682,11.96-6.755,18.062c14.81,5.352,57.277,16.863,64.695,17.791c11.137,1.393,11.338-3.965,11.338-3.965
		S86.325,71.761,80.929,59.323z"/>
	<path fill="#F6DD94" d="M80.085,57.327c-9.5-18.298-19.705-35.245-23.529-44.038c-16,2.8-29.809,15.028-38.979,28.391
		c-4.267,6.934-7.893,12.801-8.96,18.561c15.894,4.693,57.855,16.209,65.291,16.98c10.932,1.137,10.434-2.953,10.434-2.953
		S85.419,69.536,80.085,57.327z"/>
	<polygon fill="#A24C23" points="9.767,64.722 0.792,61.292 1.778,51.506 9.336,52.721 	"/>
	<path fill="#E28133" d="M52.563,0.293c0,0-41.935,6.258-52.054,49.814c0,0-1.636,4.52,2.631,5.23l5.476,1.136
		c1.564,0.354,1.849-0.356,2.702-3.557c1.138-4.414,13.938-32.078,42.525-38.904c0,0,3.333-0.497,2.612-3.746
		C56.456,10.267,55.181-0.243,52.563,0.293z"/>
	<path fill="#8A4122" d="M56.515,10.59C34.237,17.664,15.188,33.787,9.474,56.556l0.143,3.982
		c-0.574-4.884,11.479-36.245,43.394-46.091c0,0,2.798-1.042,3.545-1.157L56.515,10.59z"/>
	<path fill="#7DA32B" stroke="#6E9131" stroke-miterlimit="10" d="M51.651,33.383c1.48,4.1,6.004,6.226,10.105,4.745
		c0.059-0.021,0.113-0.049,0.172-0.073l-5.806-14.662C52.206,24.973,50.205,29.377,51.651,33.383z"/>
	<path fill="#7DA32B" stroke="#6E9131" stroke-miterlimit="10" d="M35.443,52.628c-3.83-2.082-8.623-0.664-10.704,3.168
		c-0.03,0.055-0.052,0.111-0.08,0.168l14.08,7.102C40.616,59.282,39.186,54.661,35.443,52.628z"/>
	<path fill="#7DA32B" stroke="#6E9131" stroke-miterlimit="10" d="M68.104,66.116c2.883-0.932,4.467-4.025,3.535-6.908
		c-0.012-0.043-0.031-0.08-0.045-0.123l-10.326,3.688C62.274,65.532,65.286,67.026,68.104,66.116z"/>
	<path fill="#7DA32B" stroke="#6E9131" stroke-miterlimit="10" d="M53.294,48.911c-1.662,2.535-0.953,5.938,1.582,7.598
		c0.034,0.025,0.072,0.043,0.111,0.066l5.727-9.349C58.2,45.709,54.917,46.436,53.294,48.911z"/>
	<path fill="#7DA32B" stroke="#6E9131" stroke-miterlimit="10" d="M35.304,36.615c-3.491,1.208-5.34,5.018-4.132,8.508
		c0.027,0.081,0.063,0.154,0.094,0.233l12.487-4.755C42.488,37.208,38.744,35.424,35.304,36.615z"/>
</g>
</svg>
