<?xml version="1.0" encoding="utf-8"?>
<!-- Generator: Adobe Illustrator 16.0.0, SVG Export Plug-In . SVG Version: 6.00 Build 0)  -->
<!DOCTYPE svg PUBLIC "-//W3C//DTD SVG 1.1//EN" "http://www.w3.org/Graphics/SVG/1.1/DTD/svg11.dtd">
<svg version="1.1" xmlns="http://www.w3.org/2000/svg" xmlns:xlink="http://www.w3.org/1999/xlink" x="0px" y="0px"
	 width="85.039px" height="85.039px" viewBox="0 0 85.039 85.039" enable-background="new 0 0 85.039 85.039" xml:space="preserve">
<g id="圖層_1" display="none">
	<g display="inline">
		<path fill="#320C03" d="M46.473,4.001c0,0-37.864,11.95-45.624,48.902c0,0-0.937,10.951,0.969,11.459
			c2.126,1.453,62.793,19.381,72.508,19.908c9.716,0.527,9.774-3.799,9.774-3.799s1.954-4.02-1.99-17.033
			C78.681,52.122,46.473,4.001,46.473,4.001z"/>
		<path fill="#A24C23" d="M46.897,2.291c0,0-37.99,11.538-46.151,48.402c0,0-1.056,10.94,0.844,11.468
			c2.11,1.479,62.604,19.93,72.313,20.563s10.313-3.236,10.313-3.236s1.69-7.08-2.636-17.58
			C77.075,50.974,46.897,2.291,46.897,2.291z"/>
		<path fill="#DF9F53" d="M80.518,59.144C77.505,52.2,58.781,28.121,52.639,13.601C38.036,21.249,24.733,31.337,15.66,44.558
			c-2.378,5.709-4.631,11.832-6.683,17.867c14.651,5.297,56.666,16.684,64.004,17.602c11.02,1.379,11.218-3.922,11.218-3.922
			S85.856,71.448,80.518,59.144z"/>
		<path fill="#F6DD94" d="M79.683,57.167c-9.398-18.101-19.493-34.868-23.278-43.566c-15.829,2.77-29.49,14.868-38.562,28.088
			c-4.221,6.859-7.809,12.664-8.865,18.363c15.724,4.643,57.238,16.035,64.595,16.799c10.814,1.125,10.322-2.922,10.322-2.922
			S84.959,69.245,79.683,57.167z"/>
		<polygon fill="#A24C23" points="10.116,64.483 1.238,61.091 2.213,51.409 9.69,52.61 		"/>
		<path fill="#E28133" d="M52.456,0.743c0,0-41.488,6.191-51.499,49.283c0,0-1.618,4.471,2.603,5.174l5.417,1.123
			c1.548,0.352,1.829-0.352,2.673-3.518c1.126-4.367,13.79-31.736,42.072-38.49c0,0,3.298-0.49,2.585-3.706
			C56.308,10.61,55.045,0.213,52.456,0.743z"/>
		<path fill="#8A4122" d="M56.363,10.93C34.325,17.929,15.48,33.879,9.826,56.405l0.142,3.939
			C9.4,55.513,21.325,24.487,52.896,14.746c0,0,2.77-1.031,3.508-1.145L56.363,10.93z"/>
		<g>
			<ellipse fill="#8E2E22" cx="51.354" cy="32.223" rx="8.234" ry="8.442"/>
			<circle fill="#D84621" stroke="#89302C" stroke-width="0.5" stroke-miterlimit="10" cx="51.354" cy="31.554" r="8.09"/>
		</g>
		<g>
			<ellipse fill="#8E2E22" cx="32.06" cy="55.649" rx="7.398" ry="7.586"/>
			<circle fill="#D84621" stroke="#89302C" stroke-width="0.5" stroke-miterlimit="10" cx="32.06" cy="55.05" r="7.269"/>
		</g>
		<g>
			<ellipse fill="#8E2E22" cx="66.159" cy="53.917" rx="6.571" ry="6.738"/>
			<circle fill="#D84621" stroke="#89302C" stroke-width="0.5" stroke-miterlimit="10" cx="66.159" cy="53.384" r="6.456"/>
		</g>
		<path fill="#7DA32B" stroke="#6E9131" stroke-miterlimit="10" d="M47.176,58.767c1.464,4.057,5.939,6.158,9.996,4.693
			c0.059-0.02,0.112-0.049,0.17-0.072l-5.743-14.504C47.724,50.447,45.744,54.804,47.176,58.767z"/>
		<path fill="#7DA32B" stroke="#6E9131" stroke-miterlimit="10" d="M74.229,70.882c2.854-0.922,4.42-3.982,3.498-6.836
			c-0.012-0.041-0.031-0.078-0.045-0.119l-10.215,3.646C68.462,70.302,71.442,71.782,74.229,70.882z"/>
		<path fill="#7DA32B" stroke="#6E9131" stroke-miterlimit="10" d="M30.108,35.504c-3.454,1.194-5.284,4.964-4.088,8.417
			c0.027,0.079,0.063,0.152,0.093,0.23l12.354-4.704C37.215,36.09,33.512,34.325,30.108,35.504z"/>
	</g>
</g>
<g id="圖層_2">
	<g>
		<path fill="#320C03" d="M46.515,3.587c0,0-38.272,12.08-46.116,49.43c0,0-0.946,11.069,0.979,11.581
			c2.149,1.47,63.472,19.591,73.292,20.124s9.878-3.84,9.878-3.84s1.977-4.063-2.01-17.217C79.072,52.226,46.515,3.587,46.515,3.587
			z"/>
		<path fill="#A24C23" d="M46.945,1.857c0,0-38.401,11.662-46.65,48.926c0,0-1.067,11.058,0.854,11.591
			c2.133,1.494,63.28,20.145,73.093,20.784c9.813,0.641,10.425-3.27,10.425-3.27s1.709-7.157-2.665-17.771
			C77.449,51.065,46.945,1.857,46.945,1.857z"/>
		<path fill="#DF9F53" d="M80.929,59.324c-3.047-7.019-21.972-31.357-28.181-46.035c-14.76,7.73-28.208,17.927-37.377,31.291
			c-2.404,5.772-4.682,11.959-6.755,18.061c14.809,5.354,57.278,16.864,64.695,17.793c11.139,1.392,11.339-3.966,11.339-3.966
			S86.324,71.762,80.929,59.324z"/>
		<path fill="#F6DD94" d="M80.084,57.326c-9.5-18.297-19.704-35.245-23.529-44.037c-16,2.8-29.809,15.029-38.979,28.391
			c-4.267,6.933-7.894,12.8-8.96,18.561c15.893,4.693,57.856,16.209,65.292,16.982c10.932,1.135,10.434-2.954,10.434-2.954
			S85.417,69.534,80.084,57.326z"/>
		<polygon fill="#A24C23" points="9.767,64.721 0.792,61.294 1.778,51.506 9.335,52.721 		"/>
		<path fill="#E28133" d="M52.563,0.292c0,0-41.936,6.259-52.055,49.815c0,0-1.636,4.521,2.631,5.23l5.476,1.135
			c1.564,0.354,1.849-0.355,2.702-3.556c1.138-4.415,13.938-32.077,42.525-38.904c0,0,3.334-0.497,2.614-3.747
			C56.457,10.266,55.18-0.243,52.563,0.292z"/>
		<path fill="#8A4122" d="M56.514,10.59C34.236,17.665,15.188,33.787,9.473,56.556l0.144,3.982
			C9.042,55.654,21.096,24.293,53.01,14.447c0,0,2.799-1.042,3.545-1.158L56.514,10.59z"/>
		<g>
			<ellipse fill="#8E2E22" cx="61.434" cy="54.438" rx="9.285" ry="9.52"/>
			<circle fill="#D84621" stroke="#89302C" stroke-width="0.5" stroke-miterlimit="10" cx="61.434" cy="53.685" r="9.123"/>
		</g>
		<g>
			<ellipse fill="#8E2E22" cx="29.874" cy="46.738" rx="8.342" ry="8.554"/>
			<circle fill="#D84621" stroke="#89302C" stroke-width="0.5" stroke-miterlimit="10" cx="29.874" cy="46.062" r="8.196"/>
		</g>
		<path fill="#7DA32B" stroke="#6E9131" stroke-miterlimit="10" d="M45.22,27.365c-3.46-2.651-8.416-1.994-11.065,1.467
			c-0.039,0.051-0.068,0.104-0.105,0.153l12.807,9.2C49.298,34.739,48.602,29.953,45.22,27.365z"/>
		<path fill="#7DA32B" stroke="#6E9131" stroke-miterlimit="10" d="M74.572,71.188c2.885-0.932,4.469-4.023,3.537-6.908
			c-0.014-0.042-0.032-0.08-0.047-0.121l-10.325,3.687C68.742,70.603,71.756,72.098,74.572,71.188z"/>
		<path fill="#7DA32B" stroke="#6E9131" stroke-miterlimit="10" d="M53.57,32.427c-2.161,2.127-2.188,5.601-0.063,7.761
			c0.031,0.031,0.064,0.058,0.097,0.086l7.574-7.926C59.043,30.334,55.679,30.35,53.57,32.427z"/>
		<path fill="#7DA32B" stroke="#6E9131" stroke-miterlimit="10" d="M39.709,58.413c1.021,3.549,4.729,5.598,8.279,4.575
			c0.081-0.023,0.156-0.056,0.237-0.081l-4.089-12.721C40.681,51.27,38.701,54.914,39.709,58.413z"/>
	</g>
</g>
</svg>
