<?xml version="1.0" encoding="utf-8"?>
<!-- Generator: Adobe Illustrator 16.0.0, SVG Export Plug-In . SVG Version: 6.00 Build 0)  -->
<!DOCTYPE svg PUBLIC "-//W3C//DTD SVG 1.1//EN" "http://www.w3.org/Graphics/SVG/1.1/DTD/svg11.dtd">
<svg version="1.1" id="圖層_1" xmlns="http://www.w3.org/2000/svg" xmlns:xlink="http://www.w3.org/1999/xlink" x="0px" y="0px"
	 width="85.039px" height="85.039px" viewBox="0 0 85.039 85.039" enable-background="new 0 0 85.039 85.039" xml:space="preserve">
<g>
	<path fill="#320C03" d="M46.473,4.001c0,0-37.864,11.95-45.624,48.902c0,0-0.937,10.951,0.969,11.459
		c2.126,1.453,62.793,19.381,72.508,19.908c9.716,0.527,9.774-3.799,9.774-3.799s1.954-4.02-1.99-17.033
		C78.681,52.122,46.473,4.001,46.473,4.001z"/>
	<path fill="#A24C23" d="M46.897,2.291c0,0-37.99,11.538-46.151,48.402c0,0-1.056,10.94,0.844,11.468
		c2.11,1.479,62.604,19.93,72.313,20.563s10.313-3.236,10.313-3.236s1.69-7.08-2.636-17.58C77.075,50.974,46.897,2.291,46.897,2.291
		z"/>
	<path fill="#DF9F53" d="M80.518,59.144C77.505,52.2,58.781,28.121,52.639,13.601C38.036,21.249,24.733,31.337,15.66,44.558
		c-2.378,5.709-4.631,11.832-6.683,17.867c14.651,5.297,56.666,16.684,64.004,17.602c11.02,1.379,11.218-3.922,11.218-3.922
		S85.856,71.448,80.518,59.144z"/>
	<path fill="#F6DD94" d="M79.683,57.167c-9.398-18.101-19.493-34.868-23.278-43.566c-15.829,2.77-29.49,14.868-38.562,28.088
		c-4.221,6.859-7.809,12.664-8.865,18.363c15.724,4.643,57.238,16.035,64.595,16.799c10.814,1.125,10.322-2.922,10.322-2.922
		S84.959,69.245,79.683,57.167z"/>
	<polygon fill="#A24C23" points="10.116,64.483 1.238,61.091 2.213,51.409 9.69,52.61 	"/>
	<path fill="#E28133" d="M52.456,0.743c0,0-41.488,6.191-51.499,49.283c0,0-1.618,4.471,2.603,5.174l5.417,1.123
		c1.548,0.352,1.829-0.352,2.673-3.518c1.126-4.367,13.79-31.736,42.072-38.49c0,0,3.298-0.49,2.585-3.706
		C56.308,10.61,55.045,0.213,52.456,0.743z"/>
	<path fill="#8A4122" d="M56.363,10.93C34.325,17.929,15.48,33.879,9.826,56.405l0.142,3.939
		C9.4,55.513,21.325,24.487,52.896,14.746c0,0,2.77-1.031,3.508-1.145L56.363,10.93z"/>
	<g>
		<ellipse fill="#8E2E22" cx="51.354" cy="32.223" rx="8.234" ry="8.442"/>
		<circle fill="#D84621" stroke="#89302C" stroke-width="0.5" stroke-miterlimit="10" cx="51.354" cy="31.554" r="8.09"/>
	</g>
	<g>
		<ellipse fill="#8E2E22" cx="32.06" cy="55.649" rx="7.398" ry="7.586"/>
		<circle fill="#D84621" stroke="#89302C" stroke-width="0.5" stroke-miterlimit="10" cx="32.06" cy="55.05" r="7.269"/>
	</g>
	<g>
		<ellipse fill="#8E2E22" cx="66.159" cy="53.917" rx="6.571" ry="6.738"/>
		<circle fill="#D84621" stroke="#89302C" stroke-width="0.5" stroke-miterlimit="10" cx="66.159" cy="53.384" r="6.456"/>
	</g>
	<path fill="#7DA32B" stroke="#6E9131" stroke-miterlimit="10" d="M47.176,58.767c1.464,4.057,5.939,6.158,9.996,4.693
		c0.059-0.02,0.112-0.049,0.17-0.072l-5.743-14.504C47.724,50.447,45.744,54.804,47.176,58.767z"/>
	<path fill="#7DA32B" stroke="#6E9131" stroke-miterlimit="10" d="M74.229,70.882c2.854-0.922,4.42-3.982,3.498-6.836
		c-0.012-0.041-0.031-0.078-0.045-0.119l-10.215,3.646C68.462,70.302,71.442,71.782,74.229,70.882z"/>
	<path fill="#7DA32B" stroke="#6E9131" stroke-miterlimit="10" d="M30.108,35.504c-3.454,1.194-5.284,4.964-4.088,8.417
		c0.027,0.079,0.063,0.152,0.093,0.23l12.354-4.704C37.215,36.09,33.512,34.325,30.108,35.504z"/>
</g>
</svg>
