<?xml version="1.0" encoding="utf-8"?>
<!-- Generator: Adobe Illustrator 16.0.0, SVG Export Plug-In . SVG Version: 6.00 Build 0)  -->
<!DOCTYPE svg PUBLIC "-//W3C//DTD SVG 1.1//EN" "http://www.w3.org/Graphics/SVG/1.1/DTD/svg11.dtd">
<svg version="1.1" id="圖層_1" xmlns="http://www.w3.org/2000/svg" xmlns:xlink="http://www.w3.org/1999/xlink" x="0px" y="0px"
	 width="85.04px" height="85.04px" viewBox="0 0 85.04 85.04" enable-background="new 0 0 85.04 85.04" xml:space="preserve">
<g>
	<path fill="#320C03" d="M46.515,3.587c0,0-38.271,12.079-46.115,49.429c0,0-0.946,11.069,0.979,11.582
		c2.149,1.47,63.473,19.591,73.292,20.124c9.82,0.533,9.879-3.84,9.879-3.84s1.977-4.063-2.011-17.218
		C79.072,52.226,46.515,3.587,46.515,3.587z"/>
	<path fill="#A24C23" d="M46.946,1.857c0,0-38.401,11.663-46.65,48.925c0,0-1.067,11.059,0.854,11.592
		c2.133,1.494,63.28,20.145,73.094,20.784s10.425-3.271,10.425-3.271s1.709-7.156-2.665-17.771
		C77.449,51.065,46.946,1.857,46.946,1.857z"/>
	<path fill="#DF9F53" d="M80.929,59.324c-3.046-7.02-21.971-31.357-28.18-46.034c-14.761,7.73-28.208,17.927-37.378,31.29
		c-2.404,5.771-4.682,11.959-6.755,18.061c14.809,5.353,57.277,16.864,64.695,17.792c11.139,1.393,11.339-3.965,11.339-3.965
		S86.325,71.762,80.929,59.324z"/>
	<path fill="#F6DD94" d="M80.085,57.326c-9.5-18.297-19.704-35.244-23.53-44.036c-16,2.8-29.808,15.028-38.979,28.391
		c-4.267,6.934-7.894,12.8-8.96,18.561C24.51,64.935,66.473,76.45,73.908,77.223c10.931,1.136,10.434-2.954,10.434-2.954
		S85.418,69.534,80.085,57.326z"/>
	<polygon fill="#A24C23" points="9.767,64.721 0.792,61.293 1.778,51.506 9.336,52.721 	"/>
	<path fill="#E28133" d="M52.564,0.293c0,0-41.936,6.258-52.055,49.814c0,0-1.636,4.52,2.631,5.23l5.476,1.135
		c1.564,0.354,1.849-0.356,2.702-3.556c1.138-4.415,13.938-32.078,42.525-38.904c0,0,3.334-0.496,2.613-3.746
		C56.457,10.267,55.181-0.243,52.564,0.293z"/>
	<path fill="#8A4122" d="M56.514,10.59c-22.277,7.074-41.325,23.197-47.04,45.965l0.144,3.981
		c-0.574-4.883,11.479-36.244,43.393-46.09c0,0,2.8-1.042,3.545-1.157L56.514,10.59z"/>
	<g>
		<ellipse fill="#8E2E22" cx="51.45" cy="32.112" rx="8.323" ry="8.534"/>
		<circle fill="#D84621" stroke="#89302C" stroke-width="0.5" stroke-miterlimit="10" cx="51.45" cy="31.437" r="8.178"/>
	</g>
	<g>
		<ellipse fill="#8E2E22" cx="31.948" cy="55.792" rx="7.478" ry="7.667"/>
		<circle fill="#D84621" stroke="#89302C" stroke-width="0.5" stroke-miterlimit="10" cx="31.948" cy="55.186" r="7.348"/>
	</g>
	<g>
		<ellipse fill="#8E2E22" cx="59.628" cy="51.633" rx="6.642" ry="6.81"/>
		<circle fill="#D84621" stroke="#89302C" stroke-width="0.5" stroke-miterlimit="10" cx="59.628" cy="51.094" r="6.525"/>
	</g>
	<g>
		<ellipse fill="#8E2E22" cx="73.829" cy="68.863" rx="5.952" ry="6.104"/>
		<circle fill="#D84621" stroke="#89302C" stroke-width="0.5" stroke-miterlimit="10" cx="73.829" cy="68.381" r="5.848"/>
	</g>
	<path fill="#7DA32B" stroke="#6E9131" stroke-miterlimit="10" d="M43.055,61.39c1.047,2.899,4.248,4.403,7.148,3.356
		c0.042-0.015,0.08-0.035,0.122-0.052l-4.107-10.372C43.447,55.44,42.032,58.556,43.055,61.39z"/>
	<path fill="#7DA32B" stroke="#6E9131" stroke-miterlimit="10" d="M74.676,55.701c0.154-3.027-2.174-5.607-5.199-5.763
		c-0.044-0.003-0.086,0.002-0.13,0L69.12,60.9C72.056,60.941,74.524,58.657,74.676,55.701z"/>
	<path fill="#7DA32B" stroke="#6E9131" stroke-miterlimit="10" d="M29.975,35.429c-3.49,1.208-5.34,5.018-4.132,8.507
		c0.027,0.08,0.064,0.154,0.094,0.233l12.487-4.755C37.159,36.021,33.415,34.238,29.975,35.429z"/>
</g>
</svg>
